<svg width="10" height="10" viewBox="0 0 10 10" fill="none" xmlns="http://www.w3.org/2000/svg">
<path id="Vector" d="M4.99976 4.296L8.64776 0.648C8.74111 0.554644 8.86773 0.502197 8.99976 0.502197C9.13178 0.502197 9.2584 0.554644 9.35176 0.648C9.44511 0.741357 9.49756 0.867975 9.49756 1C9.49756 1.13203 9.44511 1.25864 9.35176 1.352L5.70376 5L9.35176 8.648C9.44511 8.74136 9.49756 8.86797 9.49756 9C9.49756 9.13203 9.44511 9.25864 9.35176 9.352C9.2584 9.44536 9.13178 9.4978 8.99976 9.4978C8.86773 9.4978 8.74111 9.44536 8.64776 9.352L4.99976 5.704L1.35176 9.352C1.2584 9.44536 1.13178 9.4978 0.999756 9.4978C0.867731 9.4978 0.741113 9.44536 0.647756 9.352C0.5544 9.25864 0.501953 9.13203 0.501953 9C0.501953 8.86797 0.5544 8.74136 0.647756 8.648L4.29576 5L0.647756 1.352C0.5544 1.25864 0.501953 1.13203 0.501953 1C0.501953 0.867975 0.5544 0.741357 0.647756 0.648C0.741113 0.554644 0.867731 0.502197 0.999756 0.502197C1.13178 0.502197 1.2584 0.554644 1.35176 0.648L4.99976 4.296Z" fill="currentColor"/>
</svg>
