<svg width="38" height="38" viewBox="0 0 38 38" fill="none" xmlns="http://www.w3.org/2000/svg">
<g id="Frame">
<g id="Group 816">
<path id="Vector" d="M19 0.996063C23.6045 0.996063 28.209 2.74464 31.7331 6.2675C38.7556 13.2875 38.7556 24.7046 31.7331 31.7246C28.209 35.2475 23.6045 36.9961 19 36.9961C14.3955 36.9961 9.79102 35.2475 6.2669 31.7246C-0.755634 24.7047 -0.755634 13.2875 6.2669 6.2675C9.79097 2.74464 14.3955 0.996063 19 0.996063ZM19 2.79608C16.8907 2.79608 14.8328 3.20752 12.9036 3.97895C10.8971 4.80182 9.09647 5.98464 7.55306 7.55324C5.98394 9.09611 4.80065 10.8961 3.97749 12.9018C3.20578 14.8304 2.7942 16.8875 2.7942 18.9961C2.7942 21.1047 3.20578 23.1618 3.97749 25.0903C4.80065 27.096 5.9839 28.8961 7.55306 30.4389C9.09647 32.0075 10.8971 33.1903 12.9036 34.0132C14.8328 34.7846 16.8907 35.1961 19 35.1961C21.1093 35.1961 23.1672 34.7846 25.0964 34.0132C27.1029 33.1903 28.9035 32.0075 30.4469 30.4389C32.0161 28.8961 33.1994 27.0961 34.0225 25.0903C34.7942 23.1618 35.2058 21.1047 35.2058 18.9961C35.2058 16.8875 34.7942 14.8304 34.0225 12.9018C33.1994 10.8961 32.0161 9.0961 30.4469 7.55324C28.9035 5.98468 27.1029 4.80182 25.0964 3.97895C23.1672 3.20752 21.1093 2.79608 19 2.79608Z" fill="#FF5858"/>
<path id="Vector_2" d="M18.7861 27.1163C18.2536 27.1163 17.7964 27.3021 17.4146 27.6738C17.0327 28.0454 16.8418 28.4974 16.8418 29.0298C16.8418 29.5722 17.0327 30.0267 17.4146 30.3933C17.7964 30.7599 18.2536 30.9433 18.7861 30.9433C19.3187 30.9433 19.7759 30.7599 20.1577 30.3933C20.5396 30.0267 20.7305 29.5722 20.7305 29.0298C20.7305 28.4974 20.5396 28.0454 20.1577 27.6738C19.7759 27.3021 19.3187 27.1163 18.7861 27.1163ZM17.3091 7.24298L17.6406 23.9372H20.0221L20.3537 7.24298H17.3091Z" fill="#FF5858"/>
</g>
</g>
</svg>
